<?xml version="1.0" encoding="UTF-8"?>
<svg version="1.1" xmlns="http://www.w3.org/2000/svg" width="1369" height="1197">
<path d="M0 0 C0.73750488 0.08485657 1.47500977 0.16971313 2.23486328 0.25714111 C39.02893274 4.49073956 75.18655487 11.59993748 111 21 C111.71742371 21.18822327 112.43484741 21.37644653 113.17401123 21.57037354 C191.84192868 42.31729104 268.65676089 74.91045009 338.55419922 116.5546875 C341.67609929 118.39953163 344.83389361 120.16966201 348 121.9375 C364.79977065 131.50517426 381.01833754 142.13201464 397 153 C397.66902344 153.45294434 398.33804688 153.90588867 399.02734375 154.37255859 C414.36896893 164.76852829 429.40694074 175.57540894 444 187 C445.17444644 187.91540657 446.34892665 188.83076982 447.5234375 189.74609375 C457.58020329 197.6000009 467.45886204 205.65101091 477.1730957 213.92504883 C480.48585046 216.74130575 483.84681866 219.48042393 487.25 222.1875 C493.63472257 227.37916492 499.54223388 233.06745943 505.49609375 238.7421875 C508.36348613 241.4727737 511.26619625 244.15833812 514.1993103 246.81819153 C520.85966204 252.86551842 527.28045511 259.12601138 533.62915039 265.4987793 C535.32519726 267.20023778 537.02659821 268.89621263 538.72851562 270.59179688 C543.81550596 275.67568719 548.81894174 280.7704185 553.48999023 286.24487305 C556.02306503 289.18913735 558.71047102 291.9877078 561.375 294.8125 C566.04683901 299.80545284 570.49800315 304.90568757 574.7734375 310.24609375 C576.76670354 312.71144912 578.80941129 315.12510043 580.87768555 317.52758789 C587.94149733 325.75006085 594.49973485 334.32864629 601 343 C601.57685547 343.76650879 602.15371094 344.53301758 602.74804688 345.32275391 C611.23874457 356.62570203 619.31488574 368.13512724 627 380 C627.48678223 380.74685059 627.97356445 381.49370117 628.47509766 382.26318359 C636.88148243 395.19544405 644.56580235 408.48854497 652 422 C652.44585449 422.80373047 652.89170898 423.60746094 653.35107422 424.43554688 C694.13889972 498.26449053 717.34985972 589.15181123 693.81201172 672.17211914 C691.08212266 681.33369794 687.84068099 690.24279146 684 699 C683.71431152 699.66032227 683.42862305 700.32064453 683.13427734 701.00097656 C676.06760728 717.18063498 667.06694201 732.23287627 656 746 C655.22914062 746.97453125 654.45828125 747.9490625 653.6640625 748.953125 C641.56945453 763.92094564 627.64769589 777.77786736 612 789 C610.93652344 789.7734375 609.87304688 790.546875 608.77734375 791.34375 C586.89247593 806.87323093 563.13106508 818.70269735 538 828 C537.10845215 828.32983887 536.2169043 828.65967773 535.29833984 828.99951172 C508.66113374 838.68899171 480.98393789 844.04157423 453 848 C451.74944824 848.18079102 450.49889648 848.36158203 449.21044922 848.54785156 C407.07454721 854.31423946 361.13749339 853.21082642 319 848 C318.19975403 847.90289734 317.39950806 847.80579468 316.57501221 847.70574951 C263.86141027 841.27670178 212.50463198 829.31444156 162 813 C160.75669922 812.59845703 159.51339844 812.19691406 158.23242188 811.78320312 C105.36862101 794.50688756 53.1341697 771.83404464 4.67822266 744.50537109 C1.76686336 742.86895893 -1.15666263 741.25575688 -4.08203125 739.64453125 C-35.12800117 722.4913332 -65.09507942 703.55354496 -94 683 C-95.25562744 682.10788818 -95.25562744 682.10788818 -96.53662109 681.19775391 C-106.18136445 674.32792173 -115.67442582 667.29726179 -125 660 C-126.10400111 659.14301585 -127.20817163 658.28624989 -128.3125 657.4296875 C-146.25707522 643.46851519 -163.67410144 628.85935941 -180.36328125 613.41796875 C-182.58485288 611.38070528 -184.83582768 609.39768947 -187.125 607.4375 C-191.14283947 603.96148536 -194.83038398 600.18387963 -198.5625 596.40625 C-200.65000635 594.34550655 -202.77169223 592.40484374 -205 590.5 C-211.95145496 584.53157908 -218.27312178 577.95354935 -224.22265625 570.99609375 C-226.23268777 568.73867374 -228.34832953 566.62264287 -230.5 564.5 C-233.89268399 561.14743221 -237.09100684 557.70524318 -240.1953125 554.0859375 C-242.21651276 551.74974499 -244.29378839 549.47035149 -246.375 547.1875 C-250.19914478 542.9455915 -253.84889455 538.59448903 -257.4375 534.15234375 C-259.33020913 531.81140119 -261.25250175 529.49750788 -263.1875 527.19140625 C-271.9068223 516.77147623 -280.06904901 506.0295985 -288 495 C-288.51804199 494.28344238 -289.03608398 493.56688477 -289.56982422 492.82861328 C-335.84296398 428.71809231 -371.0110436 356.03744808 -381 277 C-381.1045752 276.17959229 -381.20915039 275.35918457 -381.31689453 274.51391602 C-388.1920972 211.38873228 -372.43748278 148.20310348 -332.625 98.4375 C-282.17206172 38.07100192 -208.18873017 10.58671102 -132 0 C-130.7011084 -0.18079102 -129.4022168 -0.36158203 -128.06396484 -0.54785156 C-86.22772684 -5.99745087 -41.8379759 -4.94828284 0 0 Z " fill="#624A2E" transform="translate(524,174)"/>
<path d="M0 0 C16.5 0 33 0 50 0 C50 118.47 50 236.94 50 359 C30.86 359 11.72 359 -8 359 C-10.33385577 351.41496876 -12.60158132 344.000004 -14.4375 336.3125 C-15.93163747 330.08243223 -17.57583911 323.90818492 -19.3125 317.7421875 C-22.28476683 307.15414155 -24.92491882 296.48790214 -27.5625 285.8125 C-30.31889783 274.67801629 -33.08246998 263.55141545 -36.06811523 252.47583008 C-37.676827 246.47550798 -39.20731547 240.45506653 -40.75 234.4375 C-43.39713519 224.12880282 -46.10617322 213.83932221 -48.875 203.5625 C-52.58844931 189.75613361 -56.06501294 175.89395433 -59.49951172 162.01586914 C-61.59635947 153.55113951 -63.74651177 145.10785514 -66.01318359 136.68676758 C-67.78324115 130.07379403 -69.4812702 123.44217103 -71.1875 116.8125 C-71.54617033 115.42121013 -71.90489413 114.02993405 -72.26367188 112.63867188 C-74.81643465 102.73426142 -74.81643465 102.73426142 -76 98 C-76.33 184.13 -76.66 270.26 -77 359 C-93.5 359 -110 359 -127 359 C-127 240.86 -127 122.72 -127 1 C-103.57 1 -80.14 1 -56 1 C-48.22222222 29.88888889 -48.22222222 29.88888889 -45.23828125 42.953125 C-44.31427214 46.8680475 -43.23003037 50.72008597 -42.10546875 54.58203125 C-39.82146848 62.4782226 -37.89805729 70.44211903 -36 78.4375 C-33.78567688 87.74133323 -31.49099112 97.00764156 -29 106.24243164 C-27.07431776 113.4783143 -25.29863014 120.75221533 -23.5 128.02050781 C-21.72157011 135.20022379 -19.9156934 142.36807578 -17.99609375 149.51171875 C-16.0969231 156.58100843 -14.31827621 163.67554855 -12.56399536 170.78173828 C-8.75617772 186.217316 -8.75617772 186.217316 -4.45922852 201.52270508 C-3.14753311 206.02236273 -2.4882396 210.35401475 -2 215 C-1.34 215 -0.68 215 0 215 C0 144.05 0 73.1 0 0 Z " fill="#FDE2C3" transform="translate(840,345)"/>
<path d="M0 0 C123.55102041 0 123.55102041 0 146 22 C146.6290625 22.59296875 147.258125 23.1859375 147.90625 23.796875 C163.65566109 39.97581548 167.31709755 65.36848816 167.30078125 86.875 C167.30506638 88.16075928 167.3093515 89.44651855 167.31376648 90.77124023 C167.32116146 93.47725585 167.32098936 96.1831409 167.31567383 98.88916016 C167.31106199 101.61556583 167.31789611 104.3415234 167.33618164 107.06787109 C167.53170063 136.49377041 166.95689446 167.93028363 145.53173828 190.74707031 C132.10116199 204.20014339 116.3027908 208.0779734 98 212 C84.14 212 70.28 212 56 212 C56 260.18 56 308.36 56 358 C37.52 358 19.04 358 0 358 C0 239.86 0 121.72 0 0 Z " fill="#FEE3C3" transform="translate(453,346)"/>
<path d="M0 0 C19.14 0 38.28 0 58 0 C60.22627737 11.13138686 60.22627737 11.13138686 60.96875 16.71875 C61.97891597 24.01088558 63.2180875 31.2513675 64.5 38.5 C65.73660686 45.49244971 66.95057703 52.47796967 67.9296875 59.51171875 C69.32076598 69.4727847 70.99302769 79.38860912 72.625 89.3125 C72.97988795 91.47735145 73.33462118 93.64222827 73.68920898 95.80712891 C74.42517873 100.29974097 75.16180863 104.79224403 75.89892578 109.28466797 C77.45915077 118.7964982 79.01178912 128.30956567 80.56427002 137.82266235 C81.06259039 140.87555374 81.56127929 143.92838473 82.06005859 146.98120117 C83.68508246 156.92925368 85.30584053 166.87797406 86.91796875 176.828125 C87.52840372 180.5937893 88.13909659 184.35941167 88.75 188.125 C88.89586548 189.02437286 89.04173096 189.92374573 89.1920166 190.85037231 C90.98872953 201.91860411 92.83490525 212.97534286 94.79174805 224.01660156 C95.82173537 229.85906688 96.70306519 235.71000133 97.49609375 241.58984375 C98.21197173 246.43450636 99.10327593 251.24663283 100.03540039 256.05419922 C100.87445336 260.56485278 101 264.30105467 101 269 C87.14 269 73.28 269 59 269 C57.99976641 262.25607809 57.00172298 255.5119075 56.00927734 248.7668457 C55.67105076 246.47270959 55.33154232 244.17876208 54.99072266 241.88500977 C54.50085113 238.58658909 54.0156047 235.28751598 53.53125 231.98828125 C53.37813354 230.96414627 53.22501709 229.94001129 53.06726074 228.88484192 C52.92711548 227.92422348 52.78697021 226.96360504 52.64257812 225.97387695 C52.51822388 225.13226517 52.39386963 224.29065338 52.26574707 223.42353821 C52 221 52 221 52 216 C35.83 216 19.66 216 3 216 C2.505 222.435 2.505 222.435 2 229 C1.56730596 232.35294154 1.11088653 235.68158515 0.58984375 239.01953125 C0.47290161 239.79276733 0.35595947 240.56600342 0.23547363 241.3626709 C-0.19201015 244.18007053 -0.62769355 246.99622118 -1.0625 249.8125 C-2.031875 256.144375 -3.00125 262.47625 -4 269 C-16.87 269 -29.74 269 -43 269 C-41.89017788 255.68213457 -41.89017788 255.68213457 -40.6875 249.9375 C-39.19450431 242.49502903 -38.08329257 235.01189406 -37 227.5 C-35.77958835 219.06394038 -34.42530859 210.70700456 -32.78125 202.34375 C-31.67158374 196.42552997 -30.86227822 190.45814804 -30 184.5 C-28.95857889 177.30401506 -27.90260767 170.13500425 -26.5 163 C-25.15933675 156.15252641 -24.12525814 149.2799761 -23.125 142.375 C-21.56855673 131.65630891 -19.8623553 120.97157297 -18.0625 110.29125977 C-16.21208385 99.30441389 -14.41143346 88.30992322 -12.625 77.3125 C-12.32943313 75.49405826 -12.03386019 73.67561751 -11.73828125 71.85717773 C-11.13501782 68.14505784 -10.53202857 64.43289353 -9.92919922 60.72070312 C-8.50304427 51.93919696 -7.07447341 43.15808393 -5.64544678 34.37704468 C-5.19976401 31.63787473 -4.75440395 28.89865246 -4.30908203 26.15942383 C-4.03289042 24.46174922 -3.75668661 22.76407659 -3.48046875 21.06640625 C-3.35990616 20.32432922 -3.23934357 19.5822522 -3.11512756 18.81768799 C-2.09355931 12.54218401 -1.04529357 6.27176145 0 0 Z " fill="#FDE2C2" transform="translate(596,567)"/>
<path d="M0 0 C0.73750488 0.08485657 1.47500977 0.16971313 2.23486328 0.25714111 C39.02893274 4.49073956 75.18655487 11.59993748 111 21 C111.71742371 21.18822327 112.43484741 21.37644653 113.17401123 21.57037354 C191.84192868 42.31729104 268.65676089 74.91045009 338.55419922 116.5546875 C341.67609929 118.39953163 344.83389361 120.16966201 348 121.9375 C364.79977065 131.50517426 381.01833754 142.13201464 397 153 C397.66902344 153.45294434 398.33804688 153.90588867 399.02734375 154.37255859 C414.36896893 164.76852829 429.40694074 175.57540894 444 187 C445.17444644 187.91540657 446.34892665 188.83076982 447.5234375 189.74609375 C457.58020329 197.6000009 467.45886204 205.65101091 477.1730957 213.92504883 C480.48585046 216.74130575 483.84681866 219.48042393 487.25 222.1875 C493.63472257 227.37916492 499.54223388 233.06745943 505.49609375 238.7421875 C508.36348613 241.4727737 511.26619625 244.15833812 514.1993103 246.81819153 C520.85966204 252.86551842 527.28045511 259.12601138 533.62915039 265.4987793 C535.32519726 267.20023778 537.02659821 268.89621263 538.72851562 270.59179688 C543.81550596 275.67568719 548.81894174 280.7704185 553.48999023 286.24487305 C556.02306503 289.18913735 558.71047102 291.9877078 561.375 294.8125 C566.04683901 299.80545284 570.49800315 304.90568757 574.7734375 310.24609375 C576.76670354 312.71144912 578.80941129 315.12510043 580.87768555 317.52758789 C587.94149733 325.75006085 594.49973485 334.32864629 601 343 C601.57685547 343.76650879 602.15371094 344.53301758 602.74804688 345.32275391 C611.23874457 356.62570203 619.31488574 368.13512724 627 380 C627.48678223 380.74685059 627.97356445 381.49370117 628.47509766 382.26318359 C636.88148243 395.19544405 644.56580235 408.48854497 652 422 C652.44585449 422.80373047 652.89170898 423.60746094 653.35107422 424.43554688 C694.13889972 498.26449053 717.34985972 589.15181123 693.81201172 672.17211914 C691.08212266 681.33369794 687.84068099 690.24279146 684 699 C683.71431152 699.66032227 683.42862305 700.32064453 683.13427734 701.00097656 C676.06760728 717.18063498 667.06694201 732.23287627 656 746 C655.22914062 746.97453125 654.45828125 747.9490625 653.6640625 748.953125 C641.56945453 763.92094564 627.64769589 777.77786736 612 789 C610.93652344 789.7734375 609.87304688 790.546875 608.77734375 791.34375 C586.89247593 806.87323093 563.13106508 818.70269735 538 828 C537.10845215 828.32983887 536.2169043 828.65967773 535.29833984 828.99951172 C508.66113374 838.68899171 480.98393789 844.04157423 453 848 C451.74944824 848.18079102 450.49889648 848.36158203 449.21044922 848.54785156 C407.07454721 854.31423946 361.13749339 853.21082642 319 848 C318.19975403 847.90289734 317.39950806 847.80579468 316.57501221 847.70574951 C263.86141027 841.27670178 212.50463198 829.31444156 162 813 C160.75669922 812.59845703 159.51339844 812.19691406 158.23242188 811.78320312 C105.36862101 794.50688756 53.1341697 771.83404464 4.67822266 744.50537109 C1.76686336 742.86895893 -1.15666263 741.25575688 -4.08203125 739.64453125 C-35.12800117 722.4913332 -65.09507942 703.55354496 -94 683 C-95.25562744 682.10788818 -95.25562744 682.10788818 -96.53662109 681.19775391 C-106.18136445 674.32792173 -115.67442582 667.29726179 -125 660 C-126.10400111 659.14301585 -127.20817163 658.28624989 -128.3125 657.4296875 C-146.25707522 643.46851519 -163.67410144 628.85935941 -180.36328125 613.41796875 C-182.58485288 611.38070528 -184.83582768 609.39768947 -187.125 607.4375 C-191.14283947 603.96148536 -194.83038398 600.18387963 -198.5625 596.40625 C-200.65000635 594.34550655 -202.77169223 592.40484374 -205 590.5 C-211.95145496 584.53157908 -218.27312178 577.95354935 -224.22265625 570.99609375 C-226.23268777 568.73867374 -228.34832953 566.62264287 -230.5 564.5 C-233.89268399 561.14743221 -237.09100684 557.70524318 -240.1953125 554.0859375 C-242.21651276 551.74974499 -244.29378839 549.47035149 -246.375 547.1875 C-250.19914478 542.9455915 -253.84889455 538.59448903 -257.4375 534.15234375 C-259.33020913 531.81140119 -261.25250175 529.49750788 -263.1875 527.19140625 C-271.9068223 516.77147623 -280.06904901 506.0295985 -288 495 C-288.51804199 494.28344238 -289.03608398 493.56688477 -289.56982422 492.82861328 C-335.84296398 428.71809231 -371.0110436 356.03744808 -381 277 C-381.1045752 276.17959229 -381.20915039 275.35918457 -381.31689453 274.51391602 C-388.1920972 211.38873228 -372.43748278 148.20310348 -332.625 98.4375 C-282.17206172 38.07100192 -208.18873017 10.58671102 -132 0 C-130.7011084 -0.18079102 -129.4022168 -0.36158203 -128.06396484 -0.54785156 C-86.22772684 -5.99745087 -41.8379759 -4.94828284 0 0 Z M-113.53759766 2.75723267 C-116.78328678 3.07722395 -120.03220748 3.35699724 -123.28125 3.640625 C-183.33473344 9.33336617 -246.75340584 27.93785522 -294 67 C-294.5352832 67.44053711 -295.07056641 67.88107422 -295.62207031 68.33496094 C-299.46125052 71.50391519 -303.24096799 74.73663846 -307 78 C-307.97195313 78.8353125 -308.94390625 79.670625 -309.9453125 80.53125 C-316.37653413 86.19215817 -321.7161843 92.27428127 -327 99 C-328.4784579 100.75059883 -329.95763159 102.50059338 -331.4375 104.25 C-350.51230095 127.63736464 -364.3194701 156.15340282 -371.125 185.5 C-371.37636719 186.55058594 -371.62773437 187.60117187 -371.88671875 188.68359375 C-393.08772485 278.4826196 -359.81601067 373.10384673 -313.109375 449.4609375 C-298.96862851 472.15047022 -283.76855333 494.16928605 -267 515 C-266.48969238 515.63647461 -265.97938477 516.27294922 -265.45361328 516.92871094 C-254.87819169 530.10538399 -244.01435143 542.97039562 -232.51000977 555.34643555 C-231.42624354 556.53323403 -230.3581542 557.7344206 -229.30053711 558.94458008 C-222.01586008 567.22693921 -214.18634885 574.96447307 -206.37963867 582.75073242 C-203.93618078 585.18881632 -201.49813193 587.63221789 -199.06054688 590.07617188 C-197.48729979 591.64875833 -195.91374263 593.22103464 -194.33984375 594.79296875 C-193.26294533 595.87290352 -193.26294533 595.87290352 -192.16429138 596.97465515 C-188.15152123 600.96912258 -184.04568938 604.79527642 -179.75167847 608.48643494 C-177.16858515 610.71839695 -174.68550441 613.0481875 -172.1875 615.375 C-167.56566169 619.64519259 -162.80576052 623.68225373 -157.90234375 627.62890625 C-154.61035835 630.31832097 -151.4001898 633.09196815 -148.1875 635.875 C-141.29675659 641.81432923 -134.21085582 647.4558123 -127 653 C-126.21705566 653.60360352 -125.43411133 654.20720703 -124.62744141 654.82910156 C-104.90827411 670.01282255 -84.79878798 684.32971058 -64 698 C-63.22269531 698.51304687 -62.44539063 699.02609375 -61.64453125 699.5546875 C-11.57620672 732.56877399 41.65549425 760.91721113 97 784 C98.79824219 784.75144287 98.79824219 784.75144287 100.6328125 785.51806641 C121.46656715 794.16598697 142.627889 801.79817281 164 809 C164.68108826 809.23009766 165.36217651 809.46019531 166.06390381 809.69726562 C199.18269537 820.85580865 233.22850441 829.22111629 267.61889648 835.375 C271.25384895 836.0469242 274.87155124 836.78621521 278.4921875 837.53125 C285.57089997 838.95564451 292.65443388 840.06116467 299.8125 841 C301.07860107 841.16733643 302.34470215 841.33467285 303.64916992 841.50708008 C313.68193802 842.80368145 323.73569693 843.80361199 333.8125 844.6875 C334.50131256 844.7481665 335.19012512 844.80883301 335.89981079 844.87133789 C340.59755536 845.28028376 345.29732495 845.65255655 350 846 C351.30316162 846.09716309 352.60632324 846.19432617 353.94897461 846.29443359 C366.26906326 847.14788588 378.59166442 847.24311709 390.9375 847.25 C392.03404907 847.25067474 393.13059814 847.25134949 394.26037598 847.25204468 C423.66451345 847.22348298 452.09760784 844.50481735 481 839 C482.5154541 838.71817871 482.5154541 838.71817871 484.06152344 838.43066406 C512.50968573 833.05531241 541.06293616 823.96211503 567 811 C567.7105957 810.65130859 568.42119141 810.30261719 569.15332031 809.94335938 C592.52855757 798.41224881 613.71435216 783.42160014 632.52441406 765.41259766 C633.89127014 764.10408851 635.2693898 762.80737271 636.6484375 761.51171875 C642.97932307 755.41050253 648.39462528 748.78401089 653.66503906 741.77050781 C654.91482504 740.11296431 656.18619662 738.4743031 657.4609375 736.8359375 C678.48579643 709.22354444 690.86920425 675.08965382 696 641 C696.26598999 639.31849854 696.26598999 639.31849854 696.53735352 637.60302734 C698.21502193 625.90339941 698.35732574 614.30499109 698.3125 602.5 C698.31034485 601.48021057 698.3081897 600.46042114 698.30596924 599.409729 C698.25501734 584.39128877 697.84265302 569.78746041 695 555 C694.70996094 553.42436279 694.70996094 553.42436279 694.4140625 551.81689453 C687.32169649 513.98546997 674.66185761 478.6465223 658 444 C657.54512207 443.04641602 657.09024414 442.09283203 656.62158203 441.11035156 C635.74770479 397.53222421 607.98748082 356.77484067 576.61328125 320.08203125 C574.20918687 317.26364971 571.88232006 314.38828047 569.5625 311.5 C565.31163065 306.27576521 560.78926466 301.3463852 556.1875 296.43359375 C553.70937234 293.78620247 551.29493878 291.08744909 548.88500977 288.37792969 C544.28993387 283.26884027 539.51650698 278.37143888 534.65234375 273.51953125 C533.79620987 272.66244064 532.94007599 271.80535004 532.05799866 270.92228699 C530.26344465 269.12705791 528.46764904 267.33306915 526.6706543 265.5402832 C523.93748595 262.81248598 521.20971705 260.07937105 518.48242188 257.34570312 C516.72688313 255.59082502 514.97103429 253.83625706 513.21484375 252.08203125 C512.40941635 251.27457962 511.60398895 250.46712799 510.77415466 249.63520813 C506.5406939 245.4190515 502.23364537 241.35353325 497.69955444 237.46144104 C495.30945637 235.4062039 493.0027586 233.26382365 490.6875 231.125 C486.22126486 227.05140091 481.63078621 223.19172297 476.92578125 219.3984375 C474.27768561 217.22763547 471.68853577 215.00705377 469.10766602 212.7578125 C462.0927862 206.65327569 454.83564736 200.95181798 447.4140625 195.3515625 C444.44405381 193.10858033 441.5043485 190.83314766 438.5859375 188.5234375 C429.38359139 181.24636555 419.98194758 174.43449684 410.25 167.8828125 C406.95917341 165.66551775 403.74231866 163.37492706 400.5625 161 C393.13126016 155.53281273 385.32174772 150.61757486 377.55810547 145.640625 C375.93818171 144.60169699 374.31981617 143.56033195 372.70361328 142.515625 C350.11797118 127.91642638 326.76223715 114.5792895 303 102 C302.07622559 101.50725586 301.15245117 101.01451172 300.20068359 100.50683594 C261.31043519 79.77537873 220.88092304 61.10896773 179.07617188 47.04150391 C176.15750782 46.05332765 173.24519179 45.04778341 170.33358765 44.03903198 C152.9715641 38.03766431 135.50866945 32.55883228 117.8125 27.625 C116.95276581 27.38423737 116.09303162 27.14347473 115.20724487 26.89541626 C92.55550081 20.57650478 69.80007245 15.31535589 46.625 11.3125 C45.51048462 11.11823425 44.39596924 10.92396851 43.24768066 10.72381592 C28.0305457 8.07919069 12.86817468 5.55668999 -2.53564453 4.29150391 C-5.06281828 4.078858 -7.58511248 3.85023372 -10.10888672 3.60302734 C-30.07727152 1.65172434 -49.9339637 0.71016903 -70 0.6875 C-70.98318207 0.68400543 -71.96636414 0.68051086 -72.9793396 0.6769104 C-86.58662656 0.6499585 -99.99886068 1.40971792 -113.53759766 2.75723267 Z " fill="#020201" transform="translate(524,174)"/>
<path d="M0 0 C5.63081755 4.17566245 9.87595706 9.49382664 11.0859375 16.546875 C11.41161478 22.22217952 11.21917677 27.86199962 11.0859375 33.546875 C3.4959375 33.546875 -4.0940625 33.546875 -11.9140625 33.546875 C-12.4090625 27.111875 -12.4090625 27.111875 -12.9140625 20.546875 C-14.5640625 20.216875 -16.2140625 19.886875 -17.9140625 19.546875 C-18.02410042 21.06600966 -18.10056007 22.58758464 -18.1640625 24.109375 C-18.23367188 25.37974609 -18.23367188 25.37974609 -18.3046875 26.67578125 C-17.21261687 34.70250039 -11.34925747 39.19092106 -5.6015625 44.234375 C2.55004121 51.63295367 8.86119195 58.42314723 11.0859375 69.546875 C11.4159375 45.786875 11.7459375 22.026875 12.0859375 -2.453125 C20.3359375 -2.453125 28.5859375 -2.453125 37.0859375 -2.453125 C37.0859375 11.076875 37.0859375 24.606875 37.0859375 38.546875 C39.7259375 38.546875 42.3659375 38.546875 45.0859375 38.546875 C45.0859375 25.016875 45.0859375 11.486875 45.0859375 -2.453125 C53.0059375 -2.453125 60.9259375 -2.453125 69.0859375 -2.453125 C69.0859375 33.516875 69.0859375 69.486875 69.0859375 106.546875 C61.1659375 106.546875 53.2459375 106.546875 45.0859375 106.546875 C45.0859375 91.366875 45.0859375 76.186875 45.0859375 60.546875 C42.1159375 60.546875 39.1459375 60.546875 36.0859375 60.546875 C36.0859375 75.726875 36.0859375 90.906875 36.0859375 106.546875 C28.1659375 106.546875 20.2459375 106.546875 12.0859375 106.546875 C11.7559375 99.946875 11.4259375 93.346875 11.0859375 86.546875 C10.6115625 88.196875 10.1371875 89.846875 9.6484375 91.546875 C7.07568737 98.66787983 2.50246076 103.15850693 -4.1171875 106.73828125 C-8.16302881 107.90795884 -12.03484038 107.91535092 -16.2265625 107.921875 C-17.45149414 107.95861328 -17.45149414 107.95861328 -18.70117188 107.99609375 C-25.53750482 108.02877741 -30.68659467 106.32414594 -35.90234375 101.8359375 C-42.38570116 93.68870961 -44.08695992 86.944671 -43.9765625 76.734375 C-43.9559375 74.0325 -43.9353125 71.330625 -43.9140625 68.546875 C-36.3240625 68.546875 -28.7340625 68.546875 -20.9140625 68.546875 C-20.68619792 72.12760417 -20.45833333 75.70833333 -20.23046875 79.2890625 C-20.12200223 82.42987652 -20.12200223 82.42987652 -18.9140625 84.546875 C-17.2640625 84.546875 -15.6140625 84.546875 -13.9140625 84.546875 C-13.05293833 76.13665186 -13.05293833 76.13665186 -16.1015625 68.546875 C-19.72587452 64.3875455 -23.97967799 60.8005752 -28.08032227 57.12036133 C-35.72300257 50.15717699 -42.7166545 41.5165786 -43.3828125 30.83984375 C-43.41702784 29.13833293 -43.42672428 27.43618269 -43.4140625 25.734375 C-43.40834229 24.8479834 -43.40262207 23.9615918 -43.39672852 23.04833984 C-43.15760538 14.29659393 -41.0182935 8.21704327 -34.6015625 2.109375 C-24.72658185 -5.32317973 -10.73905533 -6.35067059 0 0 Z " fill="#13100C" transform="translate(474.9140625,733.453125)"/>
<path d="M0 0 C19.14 0 38.28 0 58 0 C58 121.11 58 242.22 58 367 C36.55 367 15.1 367 -7 367 C-10.37450842 358.00131089 -10.37450842 358.00131089 -11.17919922 354.70556641 C-11.36304169 353.96343903 -11.54688416 353.22131165 -11.73629761 352.45669556 C-11.92386627 351.67950165 -12.11143494 350.90230774 -12.3046875 350.1015625 C-12.51054474 349.26773041 -12.71640198 348.43389832 -12.92849731 347.57479858 C-13.58188311 344.9259598 -14.22894116 342.27563449 -14.875 339.625 C-15.7231484 336.15800741 -16.57453161 332.6918334 -17.4296875 329.2265625 C-17.74888153 327.93301849 -17.74888153 327.93301849 -18.07452393 326.61334229 C-19.45215283 321.07715331 -20.92496729 315.5757083 -22.4765625 310.0859375 C-25.65147217 298.84754713 -28.40431866 287.50591448 -31.19775391 276.16796875 C-33.71496082 265.96507821 -36.29444571 255.79574755 -39.1505127 245.68212891 C-41.86915665 235.99934637 -44.22313961 226.22404802 -46.625 216.45898438 C-47.2478846 213.93046218 -47.87390628 211.40272918 -48.5 208.875 C-48.67724609 208.14941895 -48.85449219 207.42383789 -49.03710938 206.67626953 C-51.17210571 198.05949923 -53.62070558 189.56545992 -56 181 C-59.96 165.16 -63.92 149.32 -68 133 C-68.33 210.22 -68.66 287.44 -69 367 C-88.14 367 -107.28 367 -127 367 C-127 246.22 -127 125.44 -127 1 C-101.26 1 -75.52 1 -49 1 C-47.68 5.95 -46.36 10.9 -45 16 C-43.7579492 20.54554766 -43.7579492 20.54554766 -42.51489258 25.09082031 C-39.28460919 36.93678135 -36.28878594 48.82352261 -33.48510742 60.77783203 C-32.1319477 66.5047795 -30.68909486 72.17784327 -29.04296875 77.828125 C-26.56597457 86.35425593 -24.54319442 94.97608531 -22.5 103.61376953 C-20.51186426 111.99927563 -18.37598257 120.29771228 -15.96435547 128.57421875 C-14.31797248 134.42283802 -12.95162947 140.33602662 -11.5625 146.25 C-9.3806069 155.4297294 -7.12327872 164.5667106 -4.51000977 173.63378906 C-3.51887065 177.07385167 -2.67747445 180.48583574 -2 184 C-1.99576806 183.05778878 -1.99153612 182.11557756 -1.98717594 181.14481449 C-1.88413305 158.25354726 -1.77540432 135.36231246 -1.66066074 112.47110081 C-1.60530499 101.40123632 -1.5518192 90.33136861 -1.50268555 79.26147461 C-1.45987245 69.61666919 -1.41360184 59.97188774 -1.36312145 50.32711929 C-1.33649728 45.21694845 -1.31164371 40.10678243 -1.29092598 34.99658394 C-1.27139499 30.19255111 -1.24726204 25.38856399 -1.21950912 20.58457184 C-1.21011987 18.81602492 -1.20245139 17.04746796 -1.19658089 15.27890587 C-1.18835139 12.87510065 -1.17408395 10.47140731 -1.15821838 8.06764221 C-1.15724028 7.35851152 -1.15626217 6.64938082 -1.15525442 5.91876131 C-1.11412121 1.11412121 -1.11412121 1.11412121 0 0 Z M4 4 C4 74.95 4 145.9 4 219 C3.34 219 2.68 219 2 219 C1.90847656 217.95714844 1.81695313 216.91429687 1.72265625 215.83984375 C0.9369564 209.59660441 -0.88697558 203.6139699 -2.5625 197.5625 C-6.01916586 184.91108708 -9.19240515 172.20666852 -12.20922852 159.44360352 C-13.67386427 153.27618067 -15.21113295 147.14959407 -16.984375 141.0625 C-19.45522828 132.57388475 -21.46549395 123.98718427 -23.5 115.38623047 C-25.20039782 108.2143377 -26.93729412 101.07846528 -29 94 C-31.46738033 85.53283741 -33.47045971 76.96619134 -35.5 68.38623047 C-37.48398248 60.01824186 -39.61534166 51.73754658 -42.02246094 43.47851562 C-43.74071778 37.36419906 -45.17127456 31.18154931 -46.625 25 C-47.21887714 22.47858196 -47.81514457 19.95772545 -48.4140625 17.4375 C-48.6713916 16.34308594 -48.9287207 15.24867188 -49.19384766 14.12109375 C-49.98936536 11.041173 -50.99407951 8.01776146 -52 5 C-75.43 5 -98.86 5 -123 5 C-123 123.14 -123 241.28 -123 363 C-106.5 363 -90 363 -73 363 C-72.67 276.87 -72.34 190.74 -72 102 C-70.68 107.61 -69.36 113.22 -68 119 C-67.21124009 121.95019752 -66.41389934 124.88211944 -65.5625 127.8125 C-62.58041119 138.32621529 -59.98491881 148.93006446 -57.375 159.54101562 C-55.19419644 168.39371507 -52.97524835 177.22447108 -50.5 186 C-47.55124343 196.45426352 -44.96912716 206.99426738 -42.375 217.54101562 C-40.20445661 226.35206521 -37.99756675 235.1415259 -35.53125 243.875 C-32.35567258 255.12689881 -29.59883682 266.48127814 -26.80224609 277.83203125 C-24.28868676 288.02013718 -21.71268094 298.1742234 -18.85855103 308.27255249 C-17.27896157 313.89946416 -15.82981937 319.55248338 -14.4296875 325.2265625 C-14.21866394 326.08167419 -14.00764038 326.93678589 -13.79022217 327.81781006 C-12.93106807 331.3094235 -12.07561523 334.80192072 -11.22412109 338.29541016 C-10.58850773 340.89851193 -9.94694087 343.50009229 -9.3046875 346.1015625 C-9.11711884 346.87875641 -8.92955017 347.65595032 -8.73629761 348.45669556 C-8.55245514 349.19882294 -8.36861267 349.94095032 -8.17919922 350.70556641 C-7.94534012 351.66337509 -7.94534012 351.66337509 -7.70675659 352.64053345 C-6.65437269 356.15385705 -5.28776429 359.56596189 -4 363 C15.14 363 34.28 363 54 363 C54 244.53 54 126.06 54 4 C37.5 4 21 4 4 4 Z " fill="#0B0907" transform="translate(836,341)"/>
<path d="M0 0 C38.37665782 0 38.37665782 0 45.26953125 4.47265625 C52.26572291 11.68139044 55.10537247 20.58597343 55.14526367 30.53369141 C55.15164352 31.61897125 55.15802338 32.7042511 55.16459656 33.82241821 C55.16570938 34.98703583 55.1668222 36.15165344 55.16796875 37.3515625 C55.17296135 39.16628555 55.17296135 39.16628555 55.17805481 41.01766968 C55.18311487 43.57801941 55.18546342 46.13837574 55.18530273 48.69873047 C55.18748021 52.58963098 55.2056212 56.48024372 55.22460938 60.37109375 C55.22754539 62.86458237 55.22952879 65.35807233 55.23046875 67.8515625 C55.23765427 69.00403473 55.24483978 70.15650696 55.25224304 71.34390259 C55.22120494 82.48338227 54.29746246 93.44842028 47.5 102.6875 C34.73102973 114.77241829 15.97453916 110 0 110 C0 73.7 0 37.4 0 0 Z " fill="#61492E" transform="translate(509,397)"/>
<path d="M0 0 C7.59 0 15.18 0 23 0 C24.33509155 6.00791198 25.4135292 11.62187141 26 17.6875 C26.77656933 25.5035265 27.88677831 33.20744816 29 41 C30.32 50.57 31.64 60.14 33 70 C36.3 46.9 39.6 23.8 43 0 C50.59 0 58.18 0 66 0 C66 33.33 66 66.66 66 101 C61.05 101 56.1 101 51 101 C50.67 78.56 50.34 56.12 50 33 C46.75031727 54.63005885 46.75031727 54.63005885 43.50805664 76.26123047 C43.10069337 78.9632569 42.69307744 81.66524525 42.28515625 84.3671875 C42.18021347 85.07183136 42.07527069 85.77647522 41.96714783 86.50247192 C41.65842868 88.57359077 41.34544644 90.64402434 41.03149414 92.71435547 C40.76835167 94.466418 40.76835167 94.466418 40.49989319 96.25387573 C40 99 40 99 39 101 C34.71 101 30.42 101 26 101 C24.63739745 98.27479489 24.48660586 95.72431258 24.09765625 92.69921875 C23.92943359 91.41080078 23.76121094 90.12238281 23.58789062 88.79492188 C23.41253085 87.42581063 23.23740166 86.05666984 23.0625 84.6875 C20.98676982 67.86399056 20.98676982 67.86399056 18 51.1875 C16.64983219 44.18350449 15.88473296 37.07786365 15 30 C14.67 53.43 14.34 76.86 14 101 C9.38 101 4.76 101 0 101 C0 67.67 0 34.34 0 0 Z " fill="#FADFC0" transform="translate(713,735)"/>
<path d="M0 0 C116.8056377 0 116.8056377 0 131.9375 7.6875 C132.63222412 8.0285376 133.32694824 8.3695752 134.04272461 8.72094727 C140.41862508 11.97875519 145.84054372 16.02909527 151 21 C151.71414063 21.68578125 152.42828125 22.3715625 153.1640625 23.078125 C162.39004906 32.69594883 167.75220966 44.21379629 171 57 C171.28617188 58.05574219 171.57234375 59.11148438 171.8671875 60.19921875 C174.60735232 70.59879665 175.15871452 80.31001062 175.16796875 91.03515625 C175.17119123 92.4002638 175.174556 93.76537103 175.17805481 95.13047791 C175.18401825 97.98567503 175.18589777 100.84084202 175.18530273 103.69604492 C175.18520169 107.31077409 175.19880694 110.9253043 175.21607494 114.53998661 C175.22733433 117.360294 175.22921767 120.18055556 175.22869301 123.0008831 C175.23040961 124.96740561 175.24116511 126.93391382 175.25224304 128.90040588 C175.22271888 140.74558602 174.11529374 152.56399072 170.875 164 C170.55849487 165.11955078 170.55849487 165.11955078 170.2355957 166.26171875 C164.86652808 184.09678865 153.80650194 199.46501165 137.640625 208.9765625 C113.93555945 221.35587451 91.12659511 220 64 220 C64 268.18 64 316.36 64 366 C42.88 366 21.76 366 0 366 C0 245.22 0 124.44 0 0 Z M4 4 C4 122.14 4 240.28 4 362 C22.48 362 40.96 362 60 362 C60 313.82 60 265.64 60 216 C73.86 216 87.72 216 102 216 C112.76227063 214.12983247 112.76227063 214.12983247 123 211 C124.25079346 210.53835449 124.25079346 210.53835449 125.52685547 210.06738281 C143.11076746 203.32726531 154.53293568 191.48177374 162.6875 174.75 C171.39787828 154.54994512 171.35538622 133.25454005 171.31567383 111.66479492 C171.31103487 108.93155496 171.31800281 106.19875913 171.33618164 103.46557617 C171.52374583 75.00070697 169.98907942 47.00917289 149.23046875 25.2421875 C148.49441406 24.50226563 147.75835938 23.76234375 147 23 C146.09701172 22.04480469 146.09701172 22.04480469 145.17578125 21.0703125 C112.725187 -10.60597256 26.48451423 4 4 4 Z " fill="#070605" transform="translate(449,342)"/>
<path d="M0 0 C35.67567568 0 35.67567568 0 42.5 6.3125 C46.22000595 12.97751066 47.48406192 17.78913747 47.375 25.375 C47.38660156 26.17421875 47.39820313 26.9734375 47.41015625 27.796875 C47.38039364 33.92797306 46.7875508 40.95054368 42.47729492 45.66577148 C40.8125 47.0625 40.8125 47.0625 38 49 C38.763125 49.53625 39.52625 50.0725 40.3125 50.625 C45.29906221 55.03172939 46.25327802 59.58648791 47 66 C47.12980188 68.52444589 47.22167002 71.05104649 47.28125 73.578125 C47.31900804 75.00000006 47.35676852 76.42187506 47.39453125 77.84375 C47.44830667 80.0579159 47.50051663 82.27211354 47.55224609 84.48632812 C47.60400219 86.6420406 47.66119104 88.7975609 47.71875 90.953125 C47.74904297 92.23348633 47.77933594 93.51384766 47.81054688 94.83300781 C47.86425872 98.02446516 47.86425872 98.02446516 49 101 C43.39 101 37.78 101 32 101 C30.80930419 97.42791257 30.80817433 94.13088366 30.75390625 90.41015625 C30.72097311 88.88866601 30.68776138 87.36718177 30.65429688 85.84570312 C30.60687226 83.45161999 30.5624191 81.05756214 30.52319336 78.66333008 C30.48342734 76.34951909 30.43190248 74.03619675 30.37890625 71.72265625 C30.3704921 71.00900406 30.36207794 70.29535187 30.35340881 69.56007385 C30.25502735 65.59501809 29.82875859 63.65751718 28 60 C24.04 59.34 20.08 58.68 16 58 C16 72.19 16 86.38 16 101 C10.72 101 5.44 101 0 101 C0 67.67 0 34.34 0 0 Z " fill="#FAE0C0" transform="translate(791,735)"/>
<path d="M0 0 C21.12 0 42.24 0 64 0 C65.23487143 4.93948574 66.3327245 9.53105789 67.11328125 14.5078125 C67.30680176 15.72694336 67.50032227 16.94607422 67.69970703 18.20214844 C68.00303955 20.14395996 68.00303955 20.14395996 68.3125 22.125 C68.75221854 24.90391457 69.19452515 27.68241584 69.63671875 30.4609375 C69.74890747 31.167948 69.86109619 31.8749585 69.97668457 32.60339355 C71.3366553 41.15588213 72.77334547 49.69531526 74.2121582 58.23486328 C75.30442645 64.74224898 76.35998226 71.25380738 77.38227844 77.77249146 C78.91516594 87.51070114 80.49870395 97.24019123 82.09448242 106.96826172 C82.39054483 108.77572713 82.68654825 110.5832022 82.98249817 112.39068604 C83.61246463 116.23785886 84.24268567 120.08498985 84.87306786 123.93209457 C85.87001772 130.01729392 86.86541062 136.10274732 87.86042786 142.18826294 C88.02921186 143.22051778 88.19799587 144.25277261 88.37189454 145.3163079 C88.71653024 147.42409543 89.06115978 149.53188396 89.4057833 151.63967347 C91.71738533 165.77789643 94.02976747 179.91598882 96.34741211 194.05322266 C97.91824051 203.63507599 99.48627267 213.21738219 101.05102235 222.80023015 C101.87719255 227.8591795 102.70479455 232.91788532 103.5358181 237.97603989 C104.31489994 242.71819748 105.09029394 247.46094313 105.86283684 252.20417023 C106.14686543 253.94387661 106.43225883 255.68336079 106.7191124 257.42260361 C107.1101694 259.79489683 107.49632809 262.16793747 107.88127136 264.54122925 C107.99595345 265.22963925 108.11063554 265.91804926 108.22879285 266.62732017 C108.80033871 270.18617021 109 273.36023835 109 277 C92.17 277 75.34 277 58 277 C56.845 269.183125 55.69 261.36625 54.5 253.3125 C54.13455078 250.85208252 53.76910156 248.39166504 53.39257812 245.85668945 C53.10518425 243.90059516 52.81805683 241.9444617 52.53125 239.98828125 C52.38010742 238.97745483 52.22896484 237.96662842 52.07324219 236.9251709 C51.93112305 235.9512439 51.78900391 234.97731689 51.64257812 233.97387695 C51.51822388 233.13226517 51.39386963 232.29065338 51.26574707 231.42353821 C51 229 51 229 51 224 C37.47 224 23.94 224 10 224 C9.67 226.97 9.34 229.94 9 233 C8.6360849 235.82605131 8.26507506 238.64970643 7.87890625 241.47265625 C7.77408432 242.24000595 7.66926239 243.00735565 7.56126404 243.79795837 C7.34093605 245.40552151 7.11990554 247.01298851 6.89819336 248.62036133 C6.56290787 251.05953281 6.23360049 253.49946785 5.90429688 255.93945312 C5.68786987 257.51307175 5.47108505 259.08664121 5.25390625 260.66015625 C5.15799698 261.37808853 5.06208771 262.09602081 4.96327209 262.83570862 C4.86654709 263.52680222 4.76982208 264.21789581 4.67016602 264.92993164 C4.54811546 265.82186974 4.54811546 265.82186974 4.42359924 266.73182678 C3.77797686 270.1888287 2.85294267 273.5882293 2 277 C-13.51 277 -29.02 277 -45 277 C-43.83333644 266.50002797 -42.67418342 256.30158635 -40.80145264 245.95498657 C-38.12598303 231.12414472 -35.75202394 216.24807529 -33.42843628 201.35873413 C-29.71893904 177.58951947 -25.84734259 153.85150911 -21.875 130.125 C-21.74539131 129.35069138 -21.61578262 128.57638275 -21.4822464 127.77861023 C-20.8360957 123.91840263 -20.18982481 120.05821515 -19.54354858 116.19802856 C-19.41853344 115.45127995 -19.2935183 114.70453133 -19.16471481 113.93515396 C-18.91509815 112.44420929 -18.66544679 110.95327043 -18.41576004 109.46233749 C-16.3291402 97.00079539 -14.27228231 84.53465241 -12.25 72.0625 C-12.05186707 70.84182831 -12.05186707 70.84182831 -11.84973145 69.59649658 C-10.72776651 62.68313627 -9.60936324 55.76920061 -8.49157715 48.85516357 C-7.38662201 42.02151987 -6.27932274 35.18826254 -5.16931152 28.35543823 C-4.80937998 26.13662051 -4.45039593 23.91764886 -4.09240723 21.69851685 C-3.59770677 18.63197531 -3.09997207 15.56594054 -2.6015625 12.5 C-2.45399506 11.58041 -2.30642761 10.66082001 -2.15438843 9.71336365 C-2.01658966 8.86951614 -1.87879089 8.02566864 -1.73681641 7.15625 C-1.61803131 6.42212891 -1.49924622 5.68800781 -1.37686157 4.93164062 C-1 3 -1 3 0 0 Z M3 4 C0.02683332 21.63156987 -2.93306923 39.25204343 -5.5625 56.9375 C-7.22622424 68.11076517 -9.03762941 79.24906298 -10.98901367 90.3762207 C-12.86526108 101.11296548 -14.63023073 111.86620777 -16.375 122.625 C-16.52240631 123.53345673 -16.66981262 124.44191345 -16.82168579 125.37789917 C-17.57816467 130.04133569 -18.33361593 134.70493782 -19.08837891 139.36865234 C-20.42974984 147.65660701 -21.77507649 155.94391795 -23.12246704 164.230896 C-23.41555407 166.03364853 -23.70850273 167.83642356 -24.00131226 169.63922119 C-25.52439363 179.01430459 -27.05798466 188.38736179 -28.6328125 197.75390625 C-28.76360199 198.53199142 -28.89439148 199.3100766 -29.02914429 200.11174011 C-29.54066181 203.15389494 -30.0522049 206.19604542 -30.56414795 209.23812866 C-32.39916596 220.16142292 -34.08759168 231.09912566 -35.66381836 242.06323242 C-36.72538197 249.37968977 -37.98709922 256.62379359 -39.484375 263.86328125 C-40.1622066 267.45695409 -40.1622066 267.45695409 -40 273 C-27.13 273 -14.26 273 -1 273 C-0.030625 266.668125 0.93875 260.33625 1.9375 253.8125 C2.24163818 251.8425708 2.54577637 249.8726416 2.85913086 247.84301758 C3.10307792 246.23524582 3.34667095 244.62742029 3.58984375 243.01953125 C3.71427856 242.22236694 3.83871338 241.42520264 3.96691895 240.60388184 C5.00209792 233.70919925 5.46063444 227.01175226 6 220 C22.17 220 38.34 220 55 220 C55.33 223.96 55.66 227.92 56 232 C56.43924298 235.38932218 56.89996117 238.76266783 57.41015625 242.140625 C57.52709839 242.93452637 57.64404053 243.72842773 57.76452637 244.54638672 C58.19307088 247.44820159 58.62813991 250.34904993 59.0625 253.25 C60.5165625 263.02625 60.5165625 263.02625 62 273 C75.86 273 89.72 273 104 273 C104.04420437 267.07702684 104.04420437 267.07702684 103.23046875 261.49609375 C103.06538818 260.68430664 102.90030762 259.87251953 102.73022461 259.03613281 C102.55112549 258.17858398 102.37202637 257.32103516 102.1875 256.4375 C100.67778804 248.89894711 99.42556157 241.37438582 98.4375 233.75 C97.52259136 226.7118173 96.47923712 219.7326642 95.19506836 212.75292969 C93.81204106 205.1520756 92.67379537 197.51453476 91.53344727 189.87402344 C90.6731959 184.16755561 89.73781362 178.48361254 88.7109375 172.8046875 C87.17994171 164.28749976 85.82639831 155.74266985 84.4765625 147.1953125 C84.30520908 146.11172581 84.30520908 146.11172581 84.13039398 145.00624847 C83.05403452 138.19906746 81.98042842 131.39145551 80.91210938 124.58300781 C80.20814189 120.09901849 79.50052891 115.61561815 78.7890625 111.1328125 C78.61524583 110.03747507 78.61524583 110.03747507 78.43791771 108.92000961 C76.6750381 97.84952235 74.74968084 86.8205528 72.62893677 75.81204224 C71.34421781 69.10498102 70.30127535 62.39891606 69.4375 55.625 C68.39579956 47.51288819 67.01360607 39.52923093 65.41650391 31.50854492 C64.08910807 24.74708208 63.15061943 17.99953487 62.39453125 11.15234375 C62.04308134 7.83181546 62.04308134 7.83181546 61 4 C41.86 4 22.72 4 3 4 Z " fill="#0C0A08" transform="translate(593,563)"/>
<path d="M0 0 C7.26 0 14.52 0 22 0 C22.928125 5.011875 22.928125 5.011875 23.875 10.125 C24.06562012 11.14609863 24.25624023 12.16719727 24.45263672 13.21923828 C25.40512231 18.4125758 26.24709686 23.60638807 26.9765625 28.8359375 C27.98865339 36.08776279 29.22498841 43.29038901 30.5 50.5 C31.98999548 58.92524718 33.35879922 67.34751039 34.54003906 75.82177734 C35.23745632 80.64076773 36.12273795 85.41838008 37.03125 90.20117188 C37.71572708 93.9273813 38 97.17430932 38 101 C32.72 101 27.44 101 22 101 C20 87.75 20 87.75 20 81 C13.73 81 7.46 81 1 81 C0.855625 82.815 0.71125 84.63 0.5625 86.5 C0.15981555 91.35522399 -0.3501044 96.17220411 -1 101 C-5.95 101 -10.9 101 -16 101 C-15.52877644 94.21438072 -14.61863308 87.70172647 -13.29760742 81.03125 C-11.98037784 74.21891116 -10.99081177 67.36635861 -10 60.5 C-8.78179013 52.07973335 -7.43318056 43.73768592 -5.7890625 35.390625 C-4.40556996 28.0144063 -3.42135844 20.56420045 -2.35742188 13.13671875 C-2.19564453 12.01394531 -2.03386719 10.89117188 -1.8671875 9.734375 C-1.72394043 8.72600586 -1.58069336 7.71763672 -1.43310547 6.67871094 C-1 4 -1 4 0 0 Z " fill="#FBE0C1" transform="translate(861,735)"/>
<path d="M0 0 C4.95 0 9.9 0 15 0 C15 13.53 15 27.06 15 41 C20.61 41 26.22 41 32 41 C32 27.47 32 13.94 32 0 C37.28 0 42.56 0 48 0 C48 33.33 48 66.66 48 101 C42.72 101 37.44 101 32 101 C32 85.82 32 70.64 32 55 C26.39 55 20.78 55 15 55 C15 70.18 15 85.36 15 101 C10.05 101 5.1 101 0 101 C0 67.67 0 34.34 0 0 Z " fill="#FBE1C1" transform="translate(492,735)"/>
<path d="M0 0 C41.0628858 0 41.0628858 0 49.26953125 7.9609375 C54.91976706 14.61877743 55.35089936 21.63517549 55.4375 30.0625 C55.4478125 30.90127686 55.458125 31.74005371 55.46875 32.60424805 C55.35757707 40.48903339 53.45442649 47.42441803 49 54 C49.34933594 54.53109375 49.69867187 55.0621875 50.05859375 55.609375 C50.74115234 56.66898438 50.74115234 56.66898438 51.4375 57.75 C51.88996094 58.44609375 52.34242188 59.1421875 52.80859375 59.859375 C54.77970235 63.40090782 55.13648348 66.7559176 55.31640625 70.765625 C55.35830078 71.65507813 55.40019531 72.54453125 55.44335938 73.4609375 C55.48267578 74.38132812 55.52199219 75.30171875 55.5625 76.25 C55.62727539 77.65378906 55.62727539 77.65378906 55.69335938 79.0859375 C55.7991805 81.39048641 55.90126557 83.69513839 56 86 C57.5310425 76.83704829 59.06117674 67.67394548 60.59019279 58.5106554 C61.30041568 54.25450794 62.01093617 49.99841063 62.72216797 45.74243164 C63.41019385 41.62524527 64.09739729 37.50792235 64.78406143 33.39050865 C65.04448057 31.82982308 65.30518219 30.26918461 65.56618881 28.70859718 C65.9353664 26.50092881 66.30359984 24.29310553 66.67138672 22.08520508 C66.78668669 21.39489606 66.90198666 20.70458704 67.02078056 19.99335957 C67.93995353 14.45354398 68.77084524 8.90239892 69.56399536 3.34306335 C70 1 70 1 71 0 C73.07262076 -0.08767112 75.14820294 -0.10695873 77.22265625 -0.09765625 C78.48271484 -0.09443359 79.74277344 -0.09121094 81.04101562 -0.08789062 C82.38151109 -0.07953403 83.72200588 -0.07106907 85.0625 -0.0625 C86.40689942 -0.0574866 87.7513006 -0.05292342 89.09570312 -0.04882812 C92.39717941 -0.03699488 95.69856803 -0.02050971 99 0 C102.17000238 14.89369835 104.64920668 29.87413132 107.02784729 44.91087341 C108.18375303 52.19785777 109.40358555 59.47373417 110.625 66.75 C112.02190733 75.10066555 113.41622668 83.45148247 114.75 91.8125 C114.86553223 92.52825195 114.98106445 93.24400391 115.10009766 93.98144531 C115.8903189 98.98657956 116.43882564 103.94943077 117 109 C108.75 109 100.5 109 92 109 C91.34 102.4 90.68 95.8 90 89 C86.37 89.33 82.74 89.66 79 90 C78.86722656 90.95261719 78.73445312 91.90523437 78.59765625 92.88671875 C78.42105469 94.14097656 78.24445313 95.39523437 78.0625 96.6875 C77.88847656 97.92886719 77.71445312 99.17023438 77.53515625 100.44921875 C77.10157415 103.32605182 76.58336028 106.15157783 76 109 C70.05520371 109.07401579 64.11067407 109.12853813 58.16552734 109.16479492 C56.14204234 109.17990526 54.1185902 109.20039437 52.09521484 109.22631836 C49.19099835 109.26260328 46.28721385 109.27970355 43.3828125 109.29296875 C42.47443634 109.30845261 41.56606018 109.32393646 40.63015747 109.33988953 C39.36907669 109.34022942 39.36907669 109.34022942 38.08251953 109.34057617 C36.96999313 109.35056892 36.96999313 109.35056892 35.83499146 109.36076355 C35.22944427 109.24171158 34.62389709 109.12265961 34 109 C30.70715429 104.06073143 30.82285163 99.09266731 30.68359375 93.29296875 C30.66281265 92.56757401 30.64203156 91.84217926 30.62062073 91.09480286 C30.55557785 88.79245887 30.49645227 86.49000718 30.4375 84.1875 C30.39427165 82.62043186 30.35065602 81.05337435 30.30664062 79.48632812 C30.19994332 75.65766064 30.09855031 71.8288855 30 68 C28.02 67.34 26.04 66.68 24 66 C24 80.19 24 94.38 24 109 C16.08 109 8.16 109 0 109 C0 73.03 0 37.06 0 0 Z M4 4 C4 37.33 4 70.66 4 105 C9.28 105 14.56 105 20 105 C20 90.81 20 76.62 20 62 C23.96 62.66 27.92 63.32 32 64 C34.09812296 68.19624592 34.32536172 71.18124021 34.37890625 75.72265625 C34.39590073 76.46454697 34.4128952 77.20643768 34.43040466 77.97080994 C34.48339947 80.33462076 34.52376819 82.69841587 34.5625 85.0625 C34.60649072 87.43006594 34.65323665 89.79749938 34.70530701 92.16490173 C34.73715207 93.63612381 34.7640767 95.1074625 34.78553772 96.57887268 C34.84747811 99.64410123 35.02318763 102.0695629 36 105 C41.61 105 47.22 105 53 105 C52.67 104.01 52.34 103.02 52 102 C51.87136398 99.67659107 51.797823 97.34999023 51.75390625 95.0234375 C51.72093619 93.61587994 51.68772514 92.208328 51.65429688 90.80078125 C51.60717171 88.59590959 51.5627883 86.39105531 51.52319336 84.18603516 C51.70394395 69.3050877 51.70394395 69.3050877 46 56 C43.93045153 54.21655822 43.93045153 54.21655822 42 53 C42.928125 52.360625 43.85625 51.72125 44.8125 51.0625 C49.26447485 47.3304384 50.55918213 42.28278055 51.31567383 36.64916992 C51.47129342 34.27764646 51.51888176 31.93893908 51.5 29.5625 C51.49500488 28.73355225 51.49000977 27.90460449 51.48486328 27.05053711 C51.29886532 20.51431206 50.2396562 15.18800035 46 10 C34.55800794 0.05044169 17.84421663 4 4 4 Z M74 4 C71.92955309 15.20897122 69.88556974 26.40646356 68.14526367 37.67114258 C67.14688924 44.12274398 66.08133831 50.56181549 65 57 C63.62607149 65.19017671 62.2885192 73.38463159 61.01049805 81.59033203 C60.17855104 86.92290942 59.28457516 92.24212552 58.33203125 97.5546875 C57.8878766 100.41446395 57.8878766 100.41446395 58 105 C62.95 105 67.9 105 73 105 C73.33 102.628125 73.66 100.25625 74 97.8125 C74.10441406 97.07491455 74.20882812 96.3373291 74.31640625 95.57739258 C74.80650245 91.97703311 75 88.65448013 75 85 C81.27 85 87.54 85 94 85 C94.22786458 88.15755208 94.45572917 91.31510417 94.68359375 94.47265625 C94.99954768 97.99495742 95.49987137 101.49909958 96 105 C101.28 105 106.56 105 112 105 C111.48888778 98.45776355 110.49288015 92.15669059 109.22509766 85.71948242 C108.11630792 79.94172083 107.31500799 74.14622859 106.5625 68.3125 C105.49775439 60.10928013 104.10366306 52.03035144 102.48510742 43.91992188 C101.03661296 36.52655022 99.97606999 29.10708154 99.0390625 21.6328125 C98.93078125 20.78074219 98.8225 19.92867187 98.7109375 19.05078125 C98.62118652 18.31512939 98.53143555 17.57947754 98.43896484 16.8215332 C97.77017646 12.52276384 96.85319977 8.26599884 96 4 C88.74 4 81.48 4 74 4 Z " fill="#080705" transform="translate(787,731)"/>
<path d="M0 0 C4.72613861 3.17190511 7.9343469 7.30132791 10.18359375 12.484375 C10.93978061 17.44159997 10.86989527 22.15791338 10.74609375 27.171875 C5.79609375 27.171875 0.84609375 27.171875 -4.25390625 27.171875 C-4.33640625 25.604375 -4.41890625 24.036875 -4.50390625 22.421875 C-4.85052387 19.06965531 -5.09477262 17.4194162 -6.94140625 14.546875 C-9.96694278 12.74790733 -11.79025688 12.65601233 -15.25390625 13.171875 C-17.2905824 14.71693966 -18.11463703 15.89333656 -19.25390625 18.171875 C-20.02561783 25.73464853 -17.33108885 31.28689917 -13.00390625 37.296875 C-9.06408817 41.41577572 -4.73753543 45.06392082 -0.39453125 48.75 C6.08064845 54.65215494 10.55465421 61.79921545 11.22265625 70.66796875 C11.49411725 79.12142036 11.55698898 87.59561169 5.87890625 94.4140625 C5.21632813 94.95289063 4.55375 95.49171875 3.87109375 96.046875 C3.21367187 96.60117187 2.55625 97.15546875 1.87890625 97.7265625 C-3.00012977 101.03286896 -7.39692176 101.51127604 -13.19140625 101.484375 C-14.2268457 101.50854492 -14.2268457 101.50854492 -15.28320312 101.53320312 C-20.86412603 101.5384931 -24.74054828 100.23622349 -29.046875 96.69921875 C-35.99379012 88.77934633 -36.64670142 80.38454932 -36.25390625 70.171875 C-31.30390625 70.171875 -26.35390625 70.171875 -21.25390625 70.171875 C-21.09114583 73.16666667 -20.92838542 76.16145833 -20.765625 79.15625 C-20.21507869 82.40069083 -19.6019356 83.88952479 -17.25390625 86.171875 C-13.49706521 86.50730724 -10.83394398 86.36522091 -7.25390625 85.171875 C-4.86931281 80.40268813 -5.6230463 74.31749792 -6.25390625 69.171875 C-9.24525314 61.79392402 -15.74226738 56.69947168 -21.54125977 51.50048828 C-29.15590523 44.65384592 -35.0062718 37.35195307 -35.72265625 26.76953125 C-35.75667321 25.25815938 -35.76663942 23.74607601 -35.75390625 22.234375 C-35.74818604 21.44458252 -35.74246582 20.65479004 -35.73657227 19.84106445 C-35.54702488 13.66003258 -34.56461302 8.84807811 -30.25390625 4.171875 C-22.29970099 -2.98168816 -9.85042442 -4.49094619 0 0 Z " fill="#FBE0C1" transform="translate(471.25390625,735.828125)"/>
<path d="M0 0 C10.23 0 20.46 0 31 0 C33.27023215 14.9835322 35.5018262 29.91969795 37 45 C37.30489583 42.86572917 37.6097695 40.73145516 37.91455078 38.59716797 C38.18209062 36.72504563 38.45000032 34.85297611 38.71826172 32.98095703 C39.43146422 28.00019047 40.13843345 23.01869347 40.83203125 18.03515625 C40.96504639 17.08600342 41.09806152 16.13685059 41.23510742 15.15893555 C41.49143571 13.32868413 41.74556949 11.49812379 41.99731445 9.66723633 C42.11421631 8.83603271 42.23111816 8.0048291 42.3515625 7.1484375 C42.45291504 6.41802246 42.55426758 5.68760742 42.65869141 4.93505859 C43 3 43 3 44 0 C53.9 0 63.8 0 74 0 C74 35.97 74 71.94 74 109 C66.41 109 58.82 109 51 109 C50.67 102.73 50.34 96.46 50 90 C49.01 96.27 48.02 102.54 47 109 C40.07 109 33.14 109 26 109 C25.01 102.4 24.02 95.8 23 89 C22.67 95.6 22.34 102.2 22 109 C14.74 109 7.48 109 0 109 C0 73.03 0 37.06 0 0 Z M4 4 C4 37.33 4 70.66 4 105 C8.62 105 13.24 105 18 105 C18.33 81.57 18.66 58.14 19 34 C20.60955775 44.73038501 22.17275802 55.32828528 23.46875 66.07421875 C24.12865217 70.95070173 24.99656439 75.77426478 25.89013672 80.61230469 C27.0531127 87.01533935 27.84411381 93.43662736 28.5703125 99.90234375 C28.8181089 102.90295073 28.8181089 102.90295073 30 105 C34.29 105 38.58 105 43 105 C44.79298683 97.45599018 46.01469351 89.88090858 47.1640625 82.21484375 C47.33897217 81.06407349 47.51388184 79.91330322 47.6940918 78.72766113 C48.34110166 74.46478479 48.98273986 70.20109454 49.625 65.9375 C51.06875 56.388125 52.5125 46.83875 54 37 C54.33 59.44 54.66 81.88 55 105 C59.95 105 64.9 105 70 105 C70 71.67 70 38.34 70 4 C62.41 4 54.82 4 47 4 C43.7 27.1 40.4 50.2 37 74 C34.625 55.4375 34.625 55.4375 33.88916016 49.68139648 C32.62232606 39.78351395 31.33272193 29.88926164 30 20 C29.89236328 19.1953833 29.78472656 18.3907666 29.67382812 17.56176758 C29.43283959 15.76974043 29.18562035 13.97855362 28.9375 12.1875 C28.78152344 11.04667969 28.62554688 9.90585937 28.46484375 8.73046875 C28.14389931 6.0454986 28.14389931 6.0454986 27 4 C19.41 4 11.82 4 4 4 Z " fill="#070604" transform="translate(709,731)"/>
<path d="M0 0 C1.71511433 3.03102857 2.35351536 5.52656446 2.7109375 8.98046875 C2.82179688 9.98271484 2.93265625 10.98496094 3.046875 12.01757812 C3.15515625 13.06365234 3.2634375 14.10972656 3.375 15.1875 C4.24632874 23.54890466 5.42049824 31.81804602 6.7734375 40.11328125 C9.22267402 55.14903609 11.41236559 70.21959023 13.57421875 85.29882812 C14.14228482 89.2585767 14.71820802 93.21714362 15.29573441 97.17552185 C15.74608935 100.27201284 16.19077394 103.36929931 16.63393402 106.46682739 C16.84392974 107.9278077 17.05599536 109.38849223 17.27030182 110.84884644 C17.5680565 112.8814912 17.85769372 114.91514583 18.14550781 116.94921875 C18.31109192 118.09737061 18.47667603 119.24552246 18.64727783 120.4284668 C19.05928831 124.60033137 19 128.80783986 19 133 C6.79 133 -5.42 133 -18 133 C-17.36165349 122.78645577 -16.60406706 112.95460803 -15.109375 102.88671875 C-14.92437943 101.60462021 -14.73938385 100.32252167 -14.54878235 99.00157166 C-14.15725483 96.2882735 -13.76185535 93.57558279 -13.36306763 90.86334229 C-12.74135436 86.63492241 -12.12871471 82.40521739 -11.51733398 78.17529297 C-10.71346781 72.61911446 -9.9061498 67.06345195 -9.09521484 61.50830078 C-7.84062126 52.91237127 -6.59584242 44.31507106 -5.36315918 35.7159729 C-5.07673177 33.72397664 -4.78698759 31.73245813 -4.49707031 29.7409668 C-3.42942625 22.33157668 -2.49196085 14.91817006 -1.69386292 7.47525024 C-1.10790347 2.21580693 -1.10790347 2.21580693 0 0 Z " fill="#61492E" transform="translate(623,614)"/>
<path d="M0 0 C5.28 0 10.56 0 16 0 C18.87639194 6.89460541 21.21171671 13.73743778 23.1875 20.9375 C23.70137982 22.78007155 24.21568363 24.62252492 24.73046875 26.46484375 C24.95114014 27.265271 25.17181152 28.06569824 25.39916992 28.89038086 C25.88805978 30.60695837 26.43558423 32.30675268 27 34 C29.76860333 26.94311832 31.98440948 19.75067767 34.1875 12.5 C34.73954102 10.69402344 34.73954102 10.69402344 35.30273438 8.8515625 C36.20407265 5.90172815 37.10234599 2.95095759 38 0 C42.95 0 47.9 0 53 0 C51.87501589 7.87488879 51.87501589 7.87488879 50.86425781 10.86132812 C50.64022278 11.5331311 50.41618774 12.20493408 50.18536377 12.89709473 C49.82290558 13.95350159 49.82290558 13.95350159 49.453125 15.03125 C49.20004578 15.78482788 48.94696655 16.53840576 48.68621826 17.31481934 C47.87980999 19.71183468 47.065124 22.10593629 46.25 24.5 C45.71818791 26.07533119 45.1869335 27.65085076 44.65625 29.2265625 C44.26461418 30.38618248 44.26461418 30.38618248 43.86506653 31.56922913 C43.3384946 33.13301696 42.81498599 34.6978395 42.29447937 36.26365662 C41.11697499 39.78931774 39.89822174 43.25568193 38.52270508 46.71118164 C34.22461196 57.8865318 34.22002893 68.59006859 34.1875 80.4375 C34.16430223 82.4407818 34.13892617 84.44403961 34.11132812 86.44726562 C34.04915386 91.29826702 34.0162851 96.14863647 34 101 C29.05 101 24.1 101 19 101 C19.06396973 99.94989746 19.12793945 98.89979492 19.19384766 97.81787109 C20.86238689 66.16960191 13.93939108 39.92474841 2.71858215 10.44898987 C2.18293892 9.03842567 2.18293892 9.03842567 1.63647461 7.59936523 C1.31972275 6.77943588 1.00297089 5.95950653 0.67662048 5.11473083 C0 3 0 3 0 0 Z " fill="#FBE0C1" transform="translate(896,735)"/>
<path d="M0 0 C5.63081755 4.17566245 9.87595706 9.49382664 11.0859375 16.546875 C11.41161478 22.22217952 11.21917677 27.86199962 11.0859375 33.546875 C3.4959375 33.546875 -4.0940625 33.546875 -11.9140625 33.546875 C-12.4090625 27.111875 -12.4090625 27.111875 -12.9140625 20.546875 C-14.5640625 20.216875 -16.2140625 19.886875 -17.9140625 19.546875 C-18.02410042 21.06600966 -18.10056007 22.58758464 -18.1640625 24.109375 C-18.23367188 25.37974609 -18.23367188 25.37974609 -18.3046875 26.67578125 C-17.21261687 34.70250039 -11.34925747 39.19092106 -5.6015625 44.234375 C3.59573946 52.58205289 10.52072643 60.48496639 11.32421875 73.3671875 C11.57564607 83.00523477 11.72127447 92.28888082 4.9921875 99.921875 C-1.8342768 106.29324168 -7.0686396 107.90762142 -16.2265625 107.921875 C-17.45149414 107.95861328 -17.45149414 107.95861328 -18.70117188 107.99609375 C-25.53750482 108.02877741 -30.68659467 106.32414594 -35.90234375 101.8359375 C-42.38570116 93.68870961 -44.08695992 86.944671 -43.9765625 76.734375 C-43.9559375 74.0325 -43.9353125 71.330625 -43.9140625 68.546875 C-36.3240625 68.546875 -28.7340625 68.546875 -20.9140625 68.546875 C-20.68619792 72.12760417 -20.45833333 75.70833333 -20.23046875 79.2890625 C-20.12200223 82.42987652 -20.12200223 82.42987652 -18.9140625 84.546875 C-17.2640625 84.546875 -15.6140625 84.546875 -13.9140625 84.546875 C-13.05293833 76.13665186 -13.05293833 76.13665186 -16.1015625 68.546875 C-19.72587452 64.3875455 -23.97967799 60.8005752 -28.08032227 57.12036133 C-35.72300257 50.15717699 -42.7166545 41.5165786 -43.3828125 30.83984375 C-43.41702784 29.13833293 -43.42672428 27.43618269 -43.4140625 25.734375 C-43.40834229 24.8479834 -43.40262207 23.9615918 -43.39672852 23.04833984 C-43.15760538 14.29659393 -41.0182935 8.21704327 -34.6015625 2.109375 C-24.72658185 -5.32317973 -10.73905533 -6.35067059 0 0 Z M-34.9140625 7.546875 C-38.51450167 13.04597696 -39.57762252 17.9226262 -39.4140625 24.421875 C-39.39835205 25.21416504 -39.3826416 26.00645508 -39.36645508 26.82275391 C-38.88837288 39.59344283 -32.85310561 46.97990765 -23.9140625 55.546875 C-22.30196139 56.97820287 -20.67820822 58.39659976 -19.0390625 59.796875 C-13.83755504 64.37270741 -10.24964639 67.96204948 -9.58203125 75.09375 C-9.47456649 84.66788298 -9.47456649 84.66788298 -10.9140625 87.546875 C-14.49410023 88.74022091 -17.15722146 88.88230724 -20.9140625 88.546875 C-25.38952541 84.19659986 -24.59475789 78.42207985 -24.9140625 72.546875 C-29.8640625 72.546875 -34.8140625 72.546875 -39.9140625 72.546875 C-40.33779513 83.56392331 -39.36175146 91.55949552 -31.828125 99.953125 C-25.47913379 105.23963196 -16.67794464 104.16206727 -8.9140625 103.546875 C-2.7607345 102.01084245 1.77207495 97.88704841 5.0859375 92.546875 C8.58831879 84.23777732 8.46327594 73.80745837 6.19921875 65.16015625 C2.53569932 56.91998792 -3.8854669 51.01598253 -10.38793945 44.9753418 C-17.13896862 38.65630937 -22.50136063 33.53105215 -23.1640625 23.921875 C-22.93245186 20.79513134 -22.67655665 19.09269989 -20.9140625 16.546875 C-18.07322609 15.12645679 -16.05928972 15.23235228 -12.9140625 15.546875 C-10.6015625 16.921875 -10.6015625 16.921875 -8.9140625 19.546875 C-8.28647725 22.91157574 -8.09481432 26.11259048 -7.9140625 29.546875 C-2.9640625 29.546875 1.9859375 29.546875 7.0859375 29.546875 C7.60926889 17.70843135 7.60926889 17.70843135 2.31640625 7.50390625 C-3.57536183 2.04022074 -8.84403471 0.26092114 -16.9140625 0.234375 C-18.0896875 0.21761719 -19.2653125 0.20085938 -20.4765625 0.18359375 C-26.22985607 0.79161227 -30.8059725 3.54689263 -34.9140625 7.546875 Z " fill="#0C0A08" transform="translate(474.9140625,733.453125)"/>
<path d="M0 0 C8.25 0 16.5 0 25 0 C28.375 7.875 28.375 7.875 29.38671875 11.40234375 C29.60263672 12.14677734 29.81855469 12.89121094 30.04101562 13.65820312 C30.36102539 14.78645508 30.36102539 14.78645508 30.6875 15.9375 C30.91244141 16.71673828 31.13738281 17.49597656 31.36914062 18.29882812 C31.91677367 20.19806614 32.45895949 22.09887345 33 24 C35.09317658 18.54914719 36.97661654 13.08145504 38.6875 7.5 C39.450625 5.025 40.21375 2.55 41 0 C48.92 0 56.84 0 65 0 C63.01350331 7.28382119 60.93517504 14.08513311 58.2421875 21.0703125 C47.14766769 50.97152135 43.78492254 77.20087054 45 109 C37.08 109 29.16 109 21 109 C21.06703125 106.02484375 21.1340625 103.0496875 21.203125 99.984375 C21.52527866 74.56651379 19.04763344 53.47416028 9.54052734 29.90380859 C7.16995913 23.98721568 5.22576642 17.93312642 3.25 11.875 C2.91540771 10.88443604 2.58081543 9.89387207 2.23608398 8.87329102 C1.93645752 7.98440186 1.63683105 7.0955127 1.328125 6.1796875 C1.0693457 5.41382324 0.81056641 4.64795898 0.54394531 3.85888672 C0 2 0 2 0 0 Z M6 4 C7.30842228 10.59181404 9.22471419 16.58042321 11.66015625 22.83203125 C22.12857107 50.76029391 26.47382639 75.20384727 25 105 C29.95 105 34.9 105 40 105 C39.96745117 103.89116455 39.93490234 102.7823291 39.90136719 101.63989258 C39.23972856 74.63972873 42.44058629 52.27252957 52.18792725 27.11950684 C53.64009229 23.32936152 55.02373952 19.51550979 56.39453125 15.6953125 C56.65626633 14.98301483 56.9180014 14.27071716 57.18766785 13.53683472 C58.40878953 10.11802446 59 7.68040026 59 4 C54.05 4 49.1 4 44 4 C43.18595703 6.67609375 43.18595703 6.67609375 42.35546875 9.40625 C41.63294482 11.77087377 40.9102812 14.13545486 40.1875 16.5 C39.83107422 17.67304687 39.47464844 18.84609375 39.10742188 20.0546875 C37.25073885 26.11871646 35.31645781 32.09559019 33 38 C31.11246092 31.91546225 29.24060341 25.82769341 27.43359375 19.71875 C27.16562988 18.81543945 26.89766602 17.91212891 26.62158203 16.98144531 C26.08474103 15.16908046 25.55053481 13.35593294 25.01904297 11.54199219 C24.7717041 10.70829102 24.52436523 9.87458984 24.26953125 9.015625 C24.04885986 8.26571289 23.82818848 7.51580078 23.60083008 6.74316406 C23.14048761 4.9944577 23.14048761 4.9944577 22 4 C19.30345146 3.92680379 16.63308542 3.90757463 13.9375 3.9375 C12.79958008 3.94426758 12.79958008 3.94426758 11.63867188 3.95117188 C9.75908129 3.9629932 7.87953101 3.98092922 6 4 Z " fill="#0F0D0A" transform="translate(890,731)"/>
<path d="M0 0 C38.37665782 0 38.37665782 0 45.26953125 4.47265625 C52.26572291 11.68139044 55.10537247 20.58597343 55.14526367 30.53369141 C55.15164352 31.61897125 55.15802338 32.7042511 55.16459656 33.82241821 C55.16570938 34.98703583 55.1668222 36.15165344 55.16796875 37.3515625 C55.17296135 39.16628555 55.17296135 39.16628555 55.17805481 41.01766968 C55.18311487 43.57801941 55.18546342 46.13837574 55.18530273 48.69873047 C55.18748021 52.58963098 55.2056212 56.48024372 55.22460938 60.37109375 C55.22754539 62.86458237 55.22952879 65.35807233 55.23046875 67.8515625 C55.23765427 69.00403473 55.24483978 70.15650696 55.25224304 71.34390259 C55.22120494 82.48338227 54.29746246 93.44842028 47.5 102.6875 C34.73102973 114.77241829 15.97453916 110 0 110 C0 73.7 0 37.4 0 0 Z M4 4 C4 37.66 4 71.32 4 106 C31.39125403 108.23606798 31.39125403 108.23606798 44 101 C52.76380629 92.23619371 51.34660009 75.71403666 51.37095642 64.27958679 C51.36448994 61.81462763 51.35282335 59.34967709 51.33618164 56.88476562 C51.31242483 53.11306627 51.31565795 49.3420686 51.32226562 45.5703125 C51.31669265 43.15364165 51.30958517 40.73697374 51.30078125 38.3203125 C51.30169266 37.20246368 51.30260406 36.08461487 51.30354309 34.93289185 C51.22332141 26.05104204 50.1983784 17.4856649 45 10 C33.65298735 -0.68576483 19.95884634 4 4 4 Z " fill="#0F0D0B" transform="translate(509,397)"/>
<path d="M0 0 C1.71511433 3.03102857 2.35351536 5.52656446 2.7109375 8.98046875 C2.82179688 9.98271484 2.93265625 10.98496094 3.046875 12.01757812 C3.15515625 13.06365234 3.2634375 14.10972656 3.375 15.1875 C4.24632874 23.54890466 5.42049824 31.81804602 6.7734375 40.11328125 C9.22267402 55.14903609 11.41236559 70.21959023 13.57421875 85.29882812 C14.14228482 89.2585767 14.71820802 93.21714362 15.29573441 97.17552185 C15.74608935 100.27201284 16.19077394 103.36929931 16.63393402 106.46682739 C16.84392974 107.9278077 17.05599536 109.38849223 17.27030182 110.84884644 C17.5680565 112.8814912 17.85769372 114.91514583 18.14550781 116.94921875 C18.31109192 118.09737061 18.47667603 119.24552246 18.64727783 120.4284668 C19.05928831 124.60033137 19 128.80783986 19 133 C6.79 133 -5.42 133 -18 133 C-17.36165349 122.78645577 -16.60406706 112.95460803 -15.109375 102.88671875 C-14.92437943 101.60462021 -14.73938385 100.32252167 -14.54878235 99.00157166 C-14.15725483 96.2882735 -13.76185535 93.57558279 -13.36306763 90.86334229 C-12.74135436 86.63492241 -12.12871471 82.40521739 -11.51733398 78.17529297 C-10.71346781 72.61911446 -9.9061498 67.06345195 -9.09521484 61.50830078 C-7.84062126 52.91237127 -6.59584242 44.31507106 -5.36315918 35.7159729 C-5.07673177 33.72397664 -4.78698759 31.73245813 -4.49707031 29.7409668 C-3.42942625 22.33157668 -2.49196085 14.91817006 -1.69386292 7.47525024 C-1.10790347 2.21580693 -1.10790347 2.21580693 0 0 Z M0 27 C-3.08165938 46.47090592 -5.86891145 65.977305 -8.57421875 85.50341797 C-9.14483902 89.6212941 -9.71977083 93.73855637 -10.29573441 97.8556881 C-10.74372115 101.06212236 -11.18919861 104.26890142 -11.63393402 107.47578812 C-11.8451972 108.99653509 -12.05730732 110.51716468 -12.27030182 112.03767014 C-12.5646428 114.14113549 -12.85552232 116.24505149 -13.14550781 118.34912109 C-13.31109192 119.54088959 -13.47667603 120.73265808 -13.64727783 121.96054077 C-14.07684938 125.1522463 -14.07684938 125.1522463 -14 129 C-4.43 129 5.14 129 15 129 C14.40698351 124.25586811 13.80695657 119.52990059 13.1237793 114.80053711 C12.95657883 113.63989243 12.78937836 112.47924774 12.61711121 111.28343201 C12.4379567 110.04392288 12.25880219 108.80441376 12.07421875 107.52734375 C11.88332046 106.200585 11.69255296 104.87380742 11.50190735 103.54701233 C10.70041328 97.96964028 9.8979169 92.39241459 9.09204102 86.81567383 C6.21498144 66.89863371 3.51657919 46.96594575 1 27 C0.67 27 0.34 27 0 27 Z " fill="#0F0D0B" transform="translate(623,614)"/>
<path d="M0 0 C11 0 11 0 13.66015625 1.96875 C15.421142 5.95278774 15.55281572 9.19240002 15.4375 13.5 C15.44458984 14.24636719 15.45167969 14.99273438 15.45898438 15.76171875 C15.40192024 20.72190901 14.66350504 24.33649496 11 28 C7.37 28 3.74 28 0 28 C0 18.76 0 9.52 0 0 Z " fill="#060504" transform="translate(807,750)"/>
<path d="M0 0 C0.33 0 0.66 0 1 0 C1.86294065 5.67299326 2.71711879 11.34721407 3.56347656 17.02270508 C3.85213219 18.95014332 4.14310936 20.87723547 4.43652344 22.80395508 C4.85974658 25.58585551 5.27438972 28.36892578 5.6875 31.15234375 C5.81874268 32.00271713 5.94998535 32.85309052 6.08520508 33.72923279 C6.88815937 39.21154322 7.11702008 44.45861153 7 50 C2.38 50 -2.24 50 -7 50 C-6.0435929 41.24330696 -4.95496827 32.50645161 -3.84326172 23.76831055 C-3.61285578 21.95210212 -3.38403558 20.13569188 -3.15673828 18.3190918 C-2.82675737 15.68232177 -2.49205016 13.0461907 -2.15625 10.41015625 C-2.05517944 9.59563492 -1.95410889 8.78111359 -1.84997559 7.94190979 C-1.11410101 2.22820203 -1.11410101 2.22820203 0 0 Z " fill="#13110E" transform="translate(871,753)"/>
<path d="M0 0 C0.99 0.495 0.99 0.495 2 1 C2.625 4.0625 2.625 4.0625 3 7 C2.34 7 1.68 7 1 7 C1 91.15 1 175.3 1 262 C0.67 262 0.34 262 0 262 C0 175.54 0 89.08 0 0 Z " fill="#201C19" transform="translate(763,442)"/>
<path d="M0 0 C1.98 0 3.96 0 6 0 C7.57977708 3.15955417 7.18447084 6.53463817 7.1875 10 C7.19974609 10.73734375 7.21199219 11.4746875 7.22460938 12.234375 C7.22987395 14.15770058 7.12203447 16.08054263 7 18 C6.34 18.66 5.68 19.32 5 20 C3.35 20 1.7 20 0 20 C0 13.4 0 6.8 0 0 Z " fill="#614A2E" transform="translate(811,754)"/>
<path d="M0 0 C0.33 0 0.66 0 1 0 C1.33776684 1.7491497 1.67003671 3.49936145 2 5.25 C2.185625 6.22453125 2.37125 7.1990625 2.5625 8.203125 C3 11 3 11 3 15 C2.34 15 1.68 15 1 15 C1 35.13 1 55.26 1 76 C0.67 76 0.34 76 0 76 C0 50.92 0 25.84 0 0 Z " fill="#413A32" transform="translate(727,760)"/>
<path d="M0 0 C0.33 0 0.66 0 1 0 C1.33895656 1.72807318 1.67091525 3.45751974 2 5.1875 C2.185625 6.15042969 2.37125 7.11335937 2.5625 8.10546875 C2.96877612 10.7934206 3.07933572 13.28771019 3 16 C1.35 16 -0.3 16 -2 16 C-1.85833643 14.08302063 -1.71150416 12.16642277 -1.5625 10.25 C-1.48128906 9.18265625 -1.40007813 8.1153125 -1.31640625 7.015625 C-1.05909227 4.56320038 -0.68187782 2.36078709 0 0 Z " fill="#554028" transform="translate(871,783)"/>
<path d="M0 0 C0.33 0 0.66 0 1 0 C1.33 2.97 1.66 5.94 2 9 C1.01 9 0.02 9 -1 9 C-1.125 2.25 -1.125 2.25 0 0 Z " fill="#474037" transform="translate(871,753)"/>
</svg>
